<?xml version="1.0" standalone="no"?>
<!DOCTYPE svg PUBLIC "-//W3C//DTD SVG 20010904//EN"
 "http://www.w3.org/TR/2001/REC-SVG-20010904/DTD/svg10.dtd">
<svg version="1.0" xmlns="http://www.w3.org/2000/svg"
 width="512.000000pt" height="512.000000pt" viewBox="0 0 512.000000 512.000000"
 preserveAspectRatio="xMidYMid meet">

<g transform="translate(0.000000,512.000000) scale(0.100000,-0.100000)"
fill="#000000" stroke="none">
<path d="M4565 5106 c-109 -26 -141 -50 -375 -282 l-225 -224 318 -317 317
-318 224 225 c245 247 265 275 288 409 24 142 -21 282 -126 387 -114 113 -268
157 -421 120z"/>
<path d="M3225 4390 c-47 -10 -72 -27 -95 -65 -30 -49 -25 -129 12 -177 l26
-34 -970 -769 c-553 -439 -976 -781 -984 -797 -12 -22 -14 -132 -14 -635 0
-589 1 -609 20 -641 11 -18 34 -41 52 -52 32 -19 52 -20 641 -20 505 0 613 2
635 14 16 8 355 427 797 985 l770 970 34 -26 c45 -35 121 -43 168 -18 46 25
75 75 75 129 0 61 -11 77 -120 189 l-97 97 105 105 105 105 -318 317 -317 318
-105 -105 -105 -104 -103 101 c-66 66 -113 104 -132 108 -17 4 -34 8 -40 9 -5
1 -23 0 -40 -4z m13 -1368 c-282 -282 -530 -522 -550 -533 -45 -23 -89 -24
-134 -3 -71 34 -103 126 -69 195 9 19 249 267 533 551 l517 518 107 -107 108
-108 -512 -513z"/>
<path d="M1490 4289 c-432 -35 -877 -156 -1295 -352 -143 -67 -153 -73 -176
-118 -18 -37 -19 -66 -19 -876 0 -505 4 -884 11 -953 77 -845 632 -1585 1419
-1893 126 -50 285 -97 324 -97 14 0 76 15 138 34 792 240 1398 905 1561 1711
22 107 25 138 13 124 -2 -2 -144 -182 -316 -399 -172 -217 -331 -414 -354
-438 -51 -54 -109 -89 -187 -113 -57 -18 -102 -19 -700 -19 -618 0 -642 1
-700 20 -142 48 -241 146 -288 288 -20 60 -21 80 -21 699 0 678 1 687 49 781
12 24 38 61 59 83 20 23 413 340 874 705 460 366 840 668 842 673 6 10 -144
51 -289 80 -320 64 -642 84 -945 60z"/>
</g>
</svg>
